<?xml version="1.0" encoding="iso-8859-1"?>
<!-- Generator: Adobe Illustrator 19.0.0, SVG Export Plug-In . SVG Version: 6.00 Build 0)  -->
<svg version="1.1" id="Layer_1" xmlns="http://www.w3.org/2000/svg" xmlns:xlink="http://www.w3.org/1999/xlink" x="0px" y="0px"
	 viewBox="0 0 512 512" style="enable-background:new 0 0 512 512;" xml:space="preserve">
<g>
	<path style="fill:#507C5C;" d="M297.64,414.044c-6.371,0-12.13-4.378-13.624-10.849l-34.405-148.99
		c-1.74-7.531,2.956-15.046,10.488-16.785c7.532-1.74,15.046,2.956,16.786,10.487l34.405,148.99
		c1.74,7.531-2.956,15.046-10.488,16.785C299.742,413.926,298.682,414.044,297.64,414.044z"/>
	<path style="fill:#507C5C;" d="M80.402,392.277c-3.997,0-7.966-1.703-10.734-5.006c-4.964-5.923-4.187-14.751,1.737-19.715
		l29.264-24.524c5.924-4.967,14.752-4.186,19.717,1.737c4.964,5.923,4.187,14.751-1.737,19.715l-29.264,24.524
		C86.762,391.205,83.572,392.277,80.402,392.277z"/>
	<path style="fill:#507C5C;" d="M147.309,334.008c-3.908,0-7.793-1.626-10.559-4.805c-5.076-5.829-4.466-14.668,1.363-19.745
		l222.822-194.056c5.829-5.075,14.668-4.465,19.745,1.363c5.076,5.829,4.466,14.668-1.363,19.745L156.494,330.566
		C153.843,332.874,150.568,334.008,147.309,334.008z"/>
	<path style="fill:#507C5C;" d="M282.275,284.074c-3.889,0-7.758-1.611-10.524-4.764L93.153,75.803
		c-5.098-5.808-4.522-14.652,1.288-19.749c5.809-5.098,14.652-4.522,19.75,1.288l178.598,203.507
		c5.099,5.808,4.522,14.652-1.288,19.749C288.845,282.929,285.553,284.074,282.275,284.074z"/>
	<path style="fill:#507C5C;" d="M486.456,255.098h-89.153c-7.73,0-13.995-6.267-13.995-13.995c0-7.728,6.266-13.995,13.995-13.995
		h89.153c7.73,0,13.995,6.267,13.995,13.995C500.451,248.831,494.185,255.098,486.456,255.098z"/>
</g>
<circle style="fill:#CFF09E;" cx="255.47" cy="241.097" r="91.557"/>
<path style="fill:#507C5C;" d="M255.473,346.654c-58.201,0-105.551-47.35-105.551-105.551s47.35-105.551,105.551-105.551
	s105.551,47.35,105.551,105.551S313.673,346.654,255.473,346.654z M255.473,163.542c-42.767,0-77.561,34.792-77.561,77.561
	s34.794,77.561,77.561,77.561s77.561-34.792,77.561-77.561S298.24,163.542,255.473,163.542z"/>
<circle style="fill:#CFF09E;" cx="103.677" cy="66.57" r="38.039"/>
<g>
	<path style="fill:#507C5C;" d="M103.672,118.61c-28.695,0-52.039-23.344-52.039-52.039s23.344-52.04,52.039-52.04
		s52.04,23.346,52.04,52.04S132.366,118.61,103.672,118.61z M103.672,42.522c-13.261,0-24.048,10.789-24.048,24.05
		S90.412,90.62,103.672,90.62c13.261,0,24.05-10.788,24.05-24.048S116.932,42.522,103.672,42.522z"/>
	<path style="fill:#507C5C;" d="M306.872,497.469c-30.619,0-55.529-24.91-55.529-55.529s24.91-55.529,55.529-55.529
		s55.529,24.91,55.529,55.529S337.491,497.469,306.872,497.469z M306.872,414.401c-15.185,0-27.539,12.354-27.539,27.539
		s12.354,27.539,27.539,27.539c15.185,0,27.539-12.354,27.539-27.539S322.057,414.401,306.872,414.401z"/>
	<path style="fill:#507C5C;" d="M391.131,147.417c-23.127,0-41.943-18.815-41.943-41.943s18.815-41.943,41.943-41.943
		s41.943,18.815,41.943,41.943S414.258,147.417,391.131,147.417z M391.131,91.524c-7.693,0-13.952,6.259-13.952,13.952
		s6.259,13.952,13.952,13.952s13.952-6.259,13.952-13.952S398.824,91.524,391.131,91.524z"/>
</g>
<circle style="fill:#CFF09E;" cx="463.357" cy="241.097" r="34.65"/>
<path style="fill:#507C5C;" d="M463.355,289.748c-26.823,0-48.645-21.821-48.645-48.645c0-26.823,21.822-48.645,48.645-48.645
	c26.823,0,48.645,21.821,48.645,48.645C512,267.926,490.179,289.748,463.355,289.748z M463.355,220.448
	c-11.389,0-20.654,9.265-20.654,20.654c0,11.389,9.265,20.654,20.654,20.654s20.654-9.265,20.654-20.654
	C484.009,229.713,474.745,220.448,463.355,220.448z"/>
<circle style="fill:#CFF09E;" cx="52.035" cy="405.164" r="38.039"/>
<path style="fill:#507C5C;" d="M52.04,457.203C23.346,457.203,0,433.857,0,405.164c0-28.693,23.346-52.04,52.04-52.04
	s52.04,23.346,52.04,52.04C104.08,433.859,80.735,457.203,52.04,457.203z M52.04,381.115c-13.262,0-24.05,10.789-24.05,24.05
	s10.788,24.049,24.05,24.049s24.05-10.789,24.05-24.049C76.09,391.904,65.301,381.115,52.04,381.115z"/>
<g>
</g>
<g>
</g>
<g>
</g>
<g>
</g>
<g>
</g>
<g>
</g>
<g>
</g>
<g>
</g>
<g>
</g>
<g>
</g>
<g>
</g>
<g>
</g>
<g>
</g>
<g>
</g>
<g>
</g>
</svg>
